<?xml version="1.0" encoding="UTF-8"?>
<!--Generator: Apple Native CoreSVG 326-->
<!DOCTYPE svg
PUBLIC "-//W3C//DTD SVG 1.1//EN"
       "http://www.w3.org/Graphics/SVG/1.1/DTD/svg11.dtd">
<svg version="1.1" xmlns="http://www.w3.org/2000/svg" xmlns:xlink="http://www.w3.org/1999/xlink" viewBox="0 0 24.9812 25.7744">
 <g>
  <rect height="25.7744" opacity="0" width="24.9812" x="0" y="0"/>
  <path d="M23.9271 8.0642C24.2972 8.0642 24.6199 7.74508 24.6199 7.3585L24.6199 6.19459C24.6199 3.58104 22.8182 1.81043 20.245 1.81043L19.8985 1.81043L19.8985 0.695356C19.8985-0.011733 19.3228-0.188822 18.7941 0.206666L16.419 1.97682C16.0448 2.25957 16.0381 2.6435 16.419 2.92625L18.7941 4.6933C19.3197 5.08879 19.8985 4.90193 19.8985 4.22724L19.8985 3.12152L20.257 3.12152C22.0171 3.12152 23.2147 4.37373 23.2147 6.20125L23.2147 7.3585C23.2147 7.74508 23.5405 8.0642 23.9271 8.0642ZM0.696384 17.6174C0.322675 17.6174 0 17.9366 0 18.3231L0 19.4804C0 22.1272 1.83185 23.9445 4.45476 23.9445L4.79157 23.9445L4.79157 25.0626C4.79157 25.7666 5.36726 25.9437 5.89901 25.5513L8.27108 23.7714C8.64838 23.4984 8.65504 23.1114 8.27108 22.8251L5.89901 21.0647C5.37347 20.6692 4.79157 20.8561 4.79157 21.5308L4.79157 22.6334L4.44279 22.6334C2.60947 22.6334 1.40208 21.311 1.40208 19.4804L1.40208 18.3231C1.40208 17.9366 1.08296 17.6174 0.696384 17.6174Z" fill="black" fill-opacity="0.85"/>
  <path d="M6.47126 19.3296L18.2188 19.3296C19.6404 19.3296 20.5849 18.3486 20.5849 16.8937L20.5849 8.86428C20.5849 7.40626 19.6404 6.43509 18.2188 6.43509L6.47126 6.43509C5.04965 6.43509 4.11178 7.40626 4.11178 8.86428L4.11178 16.8937C4.11178 18.3486 5.04965 19.3296 6.47126 19.3296ZM6.7402 17.3772C6.3314 17.3772 6.07704 17.109 6.07704 16.6514L6.07704 9.10659C6.07704 8.66227 6.3314 8.39415 6.7402 8.39415L17.9529 8.39415C18.3684 8.39415 18.6294 8.66227 18.6294 9.10659L18.6294 16.6514C18.6294 17.109 18.3684 17.3772 17.9529 17.3772Z" fill="black" fill-opacity="0.85"/>
 </g>
</svg>
