<?xml version="1.0" encoding="UTF-8"?>
<!--Generator: Apple Native CoreSVG 326-->
<!DOCTYPE svg
PUBLIC "-//W3C//DTD SVG 1.1//EN"
       "http://www.w3.org/Graphics/SVG/1.1/DTD/svg11.dtd">
<svg version="1.1" xmlns="http://www.w3.org/2000/svg" xmlns:xlink="http://www.w3.org/1999/xlink" viewBox="0 0 24.1755 20.3788">
 <g>
  <rect height="20.3788" opacity="0" width="24.1755" x="0" y="0"/>
  <path d="M11.9104 20.3691C17.5327 20.3691 22.0949 15.8068 22.0949 10.1845C22.0949 4.56226 17.5327 0 11.9104 0C6.28815 0 1.72589 4.56226 1.72589 10.1845L3.96365 10.1845C3.96365 5.79032 7.51621 2.23776 11.9104 2.23776C16.3046 2.23776 19.8572 5.79032 19.8572 10.1845C19.8572 14.5787 16.3046 18.1313 11.9104 18.1313C9.41026 18.1313 7.21283 16.9815 5.76617 15.1689C5.30816 14.6692 4.65664 14.5111 4.12848 14.9168C3.64159 15.2975 3.56788 15.9966 4.06449 16.5878C5.79971 18.8779 8.83012 20.3691 11.9104 20.3691ZM0.742097 8.2097C-0.0107141 8.2097-0.195812 8.80623 0.209891 9.36242L2.54024 12.5486C2.85319 12.9792 3.3561 12.9694 3.66549 12.5486L5.98608 9.35576C6.38867 8.80623 6.19692 8.2097 5.46364 8.2097Z" fill="currentColor" fill-opacity="0.85"/>
 </g>
</svg>
